<svg xmlns="http://www.w3.org/2000/svg" viewBox="0 0 1200 900" width="1200" height="900"><rect width="1200" height="900" fill="#ddd3bb"/><rect x="0" y="600" width="1200" height="300" rx="0" fill="#b8a884"/><ellipse cx="600" cy="620" rx="250" ry="52" fill="#8d7f61"/><rect x="560" y="300" width="80" height="320" rx="10" fill="#6b7378"/><rect x="500" y="270" width="200" height="52" rx="10" fill="#5c646a"/><path d="M700 296 L840 210 L880 250 L740 336 Z" fill="#5c646a"/><path d="M180 740 Q600 710 1020 740" stroke="#7d8fa0" stroke-width="9" fill="none" opacity="0.55"/><path d="M180 782 Q600 752 1020 782" stroke="#7d8fa0" stroke-width="9" fill="none" opacity="0.43000000000000005"/><path d="M180 824 Q600 794 1020 824" stroke="#7d8fa0" stroke-width="9" fill="none" opacity="0.31000000000000005"/><path d="M180 866 Q600 836 1020 866" stroke="#7d8fa0" stroke-width="9" fill="none" opacity="0.19000000000000006"/><path d="M574 647 C 585.7 658.7, 582.06 669.75, 574 669.75 C 565.94 669.75, 562.3 658.7, 574 647 Z" fill="#7d8fa0"/><path d="M600 661 C 611.7 672.7, 608.06 683.75, 600 683.75 C 591.94 683.75, 588.3 672.7, 600 661 Z" fill="#7d8fa0"/><path d="M626 675 C 637.7 686.7, 634.06 697.75, 626 697.75 C 617.94 697.75, 614.3 686.7, 626 675 Z" fill="#7d8fa0"/></svg>